<svg width="181" height="179" viewBox="0 0 181 179" fill="none" xmlns="http://www.w3.org/2000/svg">
<g clip-path="url(#clip0_126_1001)">
<path d="M90.51 178.02C119.51 178.02 143.02 154.51 143.02 125.51C143.02 96.5095 119.51 73 90.51 73C61.5095 73 38 96.5095 38 125.51C38 154.51 61.5095 178.02 90.51 178.02Z" fill="#2B4C68"/>
<path d="M104.49 108.78C106.335 108.78 107.83 107.285 107.83 105.44C107.83 103.595 106.335 102.1 104.49 102.1C102.645 102.1 101.15 103.595 101.15 105.44C101.15 107.285 102.645 108.78 104.49 108.78Z" fill="white"/>
<path d="M56.8498 103.74C58.6944 103.74 60.1898 102.245 60.1898 100.4C60.1898 98.5554 58.6944 97.06 56.8498 97.06C55.0051 97.06 53.5098 98.5554 53.5098 100.4C53.5098 102.245 55.0051 103.74 56.8498 103.74Z" fill="white"/>
<path d="M78.3398 124.92C84.9398 125.62 90.9898 119.92 92.1598 112.07C92.2298 111.63 91.8998 111.23 91.4598 111.19L68.3698 108.75C67.9298 108.7 67.5298 109.03 67.4998 109.47C67.0198 117.39 71.7498 124.22 78.3398 124.92Z" fill="white"/>
</g>
<path d="M168.87 32.84L155.51 49.25C154.4 50.61 155.18 52.66 156.91 52.94L177.8 56.3C179.53 56.58 180.91 54.88 180.29 53.24L172.77 33.47C172.14 31.83 169.98 31.48 168.87 32.84Z" fill="white"/>
<path d="M13.4999 57.16L1.71985 52.19C0.28985 51.59 -0.38015 49.93 0.21985 48.5L5.18985 36.72C5.78985 35.29 7.44985 34.62 8.87985 35.22L20.6598 40.19C22.0898 40.79 22.7598 42.45 22.1598 43.88L17.1898 55.66C16.5898 57.09 14.9398 57.76 13.4999 57.16Z" fill="white"/>
<path d="M103.07 4.63L94.3599 6.58L87.8099 0.509995C86.6499 -0.570005 84.7599 0.159995 84.6099 1.73L83.7699 10.62L75.9699 14.97C74.5899 15.74 74.6899 17.76 76.1399 18.39L84.3399 21.93L86.0699 30.69C86.3799 32.24 88.3299 32.77 89.3699 31.58L95.2699 24.88L104.14 25.94C105.71 26.13 106.81 24.43 106.01 23.07L101.46 15.39L105.21 7.29C105.88 5.86 104.61 4.28 103.07 4.63Z" fill="white"/>
<defs>
<clipPath id="clip0_126_1001">
<rect width="105.03" height="105.03" fill="white" transform="translate(38 73)"/>
</clipPath>
</defs>
</svg>
